<svg width="20" height="20" viewBox="0 0 20 20" fill="none" xmlns="http://www.w3.org/2000/svg">
<g id="Style=Regular">
<path id="add" d="M10 16C9.75714 16 9.54643 15.9107 9.36786 15.7321C9.18929 15.5536 9.1 15.3451 9.1 15.1067V10.9H4.89329C4.65491 10.9 4.44643 10.8107 4.26786 10.6321C4.08929 10.4536 4 10.2429 4 10C4 9.75714 4.08929 9.54643 4.26786 9.36786C4.44643 9.18929 4.65491 9.1 4.89329 9.1H9.1V4.89329C9.1 4.65491 9.18929 4.44643 9.36786 4.26786C9.54643 4.08929 9.75714 4 10 4C10.2429 4 10.4536 4.08929 10.6321 4.26786C10.8107 4.44643 10.9 4.65491 10.9 4.89329V9.1H15.1067C15.3451 9.1 15.5536 9.18929 15.7321 9.36786C15.9107 9.54643 16 9.75714 16 10C16 10.2429 15.9107 10.4536 15.7321 10.6321C15.5536 10.8107 15.3451 10.9 15.1067 10.9H10.9V15.1067C10.9 15.3451 10.8107 15.5536 10.6321 15.7321C10.4536 15.9107 10.2429 16 10 16Z" fill="#222222"/>
</g>
</svg>
