<svg width="24" height="24" viewBox="0 0 24 24" fill="none" xmlns="http://www.w3.org/2000/svg">
<g id="Delete">
<path id="delete" d="M7.07188 21C6.49437 21 6 20.7944 5.58875 20.3831C5.1775 19.9719 4.97188 19.4775 4.97188 18.9V6.15C4.68854 6.15 4.44271 6.04583 4.23438 5.8375C4.02604 5.62917 3.92188 5.38333 3.92188 5.1C3.92188 4.81667 4.02604 4.57083 4.23438 4.3625C4.44271 4.15417 4.69014 4.05 4.97668 4.05H9.02188C9.02188 3.76667 9.12604 3.52083 9.33438 3.3125C9.54271 3.10417 9.78854 3 10.0719 3H13.8969C14.1802 3 14.426 3.10417 14.6344 3.3125C14.8427 3.52083 14.9469 3.76667 14.9469 4.05H18.9921C19.2786 4.05 19.526 4.15417 19.7344 4.3625C19.9427 4.57083 20.0469 4.81667 20.0469 5.1C20.0469 5.38333 19.9427 5.62917 19.7344 5.8375C19.526 6.04583 19.2802 6.15 18.9969 6.15V18.9C18.9969 19.4775 18.7913 19.9719 18.38 20.3831C17.9688 20.7944 17.4744 21 16.8969 21H7.07188ZM7.07188 6.15V18.9H16.8969V6.15H7.07188ZM8.94688 15.75C8.94688 16.0333 9.05104 16.2792 9.25938 16.4875C9.46771 16.6958 9.71354 16.8 9.99688 16.8C10.2802 16.8 10.526 16.6958 10.7344 16.4875C10.9427 16.2792 11.0469 16.0333 11.0469 15.75V9.3C11.0469 9.01667 10.9427 8.77083 10.7344 8.5625C10.526 8.35417 10.2802 8.25 9.99688 8.25C9.71354 8.25 9.46771 8.35417 9.25938 8.5625C9.05104 8.77083 8.94688 9.01667 8.94688 9.3V15.75ZM12.9219 15.75C12.9219 16.0333 13.026 16.2792 13.2344 16.4875C13.4427 16.6958 13.6885 16.8 13.9719 16.8C14.2552 16.8 14.501 16.6958 14.7094 16.4875C14.9177 16.2792 15.0219 16.0333 15.0219 15.75V9.3C15.0219 9.01667 14.9177 8.77083 14.7094 8.5625C14.501 8.35417 14.2552 8.25 13.9719 8.25C13.6885 8.25 13.4427 8.35417 13.2344 8.5625C13.026 8.77083 12.9219 9.01667 12.9219 9.3V15.75Z" fill="#222222"/>
</g>
</svg>
