<svg width="240" height="240" viewBox="0 0 240 240" fill="none" xmlns="http://www.w3.org/2000/svg">
<g clip-path="url(#clip0_99_5103)">
<path d="M212.325 103.125C241.725 59.9999 240.45 62.6249 239.943 61.2936C239.437 59.9624 244.462 62.2124 154.987 28.6499C153.408 20.535 149.055 13.2221 142.675 7.96431C136.295 2.70655 128.285 -0.168701 120.018 -0.168701C111.751 -0.168701 103.741 2.70655 97.3615 7.96431C90.9817 13.2221 86.6291 20.535 85.0496 28.6499L1.19956 59.9999C0.920926 60.0954 0.668729 60.2553 0.463405 60.4665C0.25808 60.6777 0.105405 60.9343 0.0177526 61.2155C-0.0698995 61.4968 -0.0900626 61.7947 -0.0411024 62.0851C0.00785778 62.3756 0.124564 62.6504 0.299557 62.8874L27.6746 103.125L0.299557 143.287C0.108595 143.525 -0.0214431 143.806 -0.0792763 144.106C-0.137109 144.405 -0.120991 144.714 -0.0323194 145.006C0.0563521 145.298 0.214899 145.564 0.429567 145.781C0.644235 145.997 0.908541 146.158 1.19956 146.25L28.1246 156.244V204.375C28.1246 206.362 22.4996 203.625 119.362 240C119.8 240.15 120.275 240.15 120.712 240C218.212 203.344 211.875 206.25 211.875 204.375V156.244L238.8 146.25C239.078 146.154 239.33 145.994 239.536 145.783C239.741 145.572 239.894 145.315 239.981 145.034C240.069 144.753 240.089 144.455 240.04 144.165C239.991 143.874 239.875 143.599 239.7 143.362L212.325 103.125ZM127.5 89.9999C127.997 89.9999 128.474 89.8024 128.825 89.4507C129.177 89.0991 129.375 88.6222 129.375 88.1249C129.375 78.3749 129.187 77.6061 129.937 75.1499L204.543 103.125L120 134.831L35.4558 103.125L110.85 74.8499C110.493 77.6061 110.625 78.4124 110.625 88.1249C110.625 88.6222 110.822 89.0991 111.174 89.4507C111.525 89.8024 112.002 89.9999 112.5 89.9999H127.5ZM116.362 60.6186C98.8683 34.9686 100.331 37.4999 101.25 37.4999C101.747 37.4999 102.224 37.3024 102.575 36.9507C102.927 36.5991 103.125 36.1222 103.125 35.6249C103.133 32.6347 103.935 29.7004 105.45 27.1223C106.965 24.5441 109.137 22.4148 111.745 20.9521C114.353 19.4895 117.303 18.7461 120.293 18.7981C123.283 18.8501 126.205 19.6955 128.76 21.2479C131.316 22.8003 133.413 25.0039 134.837 27.6331C136.262 30.2624 136.962 33.2228 136.866 36.2115C136.77 39.2001 135.882 42.1096 134.292 44.6422C132.702 47.1748 130.468 49.2394 127.818 50.6249C123.268 53.0104 119.343 56.4341 116.362 60.6186ZM209.268 100.8L131.643 71.6811C132.916 69.7866 134.635 68.2346 136.65 67.1624C142.816 63.9438 147.902 58.9852 151.275 52.902C154.648 46.8188 156.161 39.8789 155.625 32.9436L235.162 62.8124L209.268 100.8ZM98.7746 11.9061C102.124 8.82909 106.092 6.50436 110.414 5.08812C114.736 3.67187 119.311 3.19691 123.832 3.69513C128.353 4.19335 132.714 5.65322 136.624 7.97668C140.534 10.3001 143.901 13.4334 146.5 17.1659C149.098 20.8985 150.868 25.1439 151.69 29.617C152.512 34.0902 152.367 38.6874 151.266 43.1C150.164 47.5126 148.131 51.6383 145.302 55.2C142.474 58.7617 138.916 61.677 134.868 63.7499C132.087 65.158 129.743 67.2997 128.091 69.9435C126.438 72.5873 125.54 75.6326 125.493 78.7499V86.2499H114.375V78.8624C114.396 73.7098 115.825 68.661 118.509 64.2623C121.192 59.8636 125.028 56.2824 129.6 53.9061C147.6 44.3999 142.5 17.3061 122.381 15.0936C119.638 14.7639 116.857 14.9886 114.202 15.7543C111.548 16.5201 109.074 17.8114 106.928 19.5515C104.782 21.2916 103.008 23.4451 101.71 25.8841C100.413 28.3231 99.6185 30.998 99.3746 33.7499H88.1246C88.6507 25.348 92.4793 17.4953 98.7746 11.9061ZM84.4871 32.9436C84.3746 33.7499 84.3746 34.7249 84.3746 35.6249C84.3746 36.1222 84.5721 36.5991 84.9237 36.9507C85.2754 37.3024 85.7523 37.4999 86.2496 37.4999H95.9808L114.187 64.2186C113.152 66.1952 112.329 68.2754 111.731 70.4249L30.7308 100.8L4.83706 62.8124L84.4871 32.9436ZM30.7308 105.45L116.981 137.812L91.1433 175.8L4.83706 143.437L30.7308 105.45ZM31.8746 157.687C95.2308 181.425 91.3308 180 91.8746 180C93.3183 180 91.2746 182.381 118.125 143.044V235.331L31.8746 203.044V157.687ZM208.125 203.044L121.875 235.369V143.081C148.631 182.269 146.681 180 148.125 180C148.668 180 144.618 181.444 208.125 157.65V203.044ZM148.856 175.8L122.962 137.812L209.212 105.45L235.162 143.437L148.856 175.8Z" fill="#B3B3B3"/>
<path d="M120 118.125C121.854 118.125 123.667 117.575 125.208 116.545C126.75 115.515 127.952 114.051 128.661 112.338C129.371 110.625 129.557 108.74 129.195 106.921C128.833 105.102 127.94 103.432 126.629 102.121C125.318 100.81 123.648 99.9169 121.829 99.5551C120.01 99.1934 118.125 99.3791 116.412 100.089C114.699 100.798 113.235 102 112.205 103.542C111.175 105.083 110.625 106.896 110.625 108.75C110.625 111.236 111.613 113.621 113.371 115.379C115.129 117.137 117.514 118.125 120 118.125ZM120 103.125C121.113 103.125 122.2 103.455 123.125 104.073C124.05 104.691 124.771 105.57 125.197 106.597C125.623 107.625 125.734 108.756 125.517 109.847C125.3 110.939 124.764 111.941 123.977 112.727C123.191 113.514 122.189 114.05 121.097 114.267C120.006 114.484 118.875 114.373 117.847 113.947C116.82 113.521 115.941 112.8 115.323 111.875C114.705 110.95 114.375 109.863 114.375 108.75C114.375 107.258 114.968 105.827 116.023 104.773C117.077 103.718 118.508 103.125 120 103.125Z" fill="#B3B3B3"/>
</g>
<defs>
<clipPath id="clip0_99_5103">
<rect width="240" height="240" fill="white"/>
</clipPath>
</defs>
</svg>
