<svg width="40" height="40" viewBox="0 0 40 40" fill="none" xmlns="http://www.w3.org/2000/svg">
<g clip-path="url(#clip0_1940_4867)">
<path d="M35.5 20C35.5 11.4375 28.5625 4.5 20 4.5C11.4375 4.5 4.5 11.4375 4.5 20C4.5 27.75 10.125 34.1875 17.5625 35.3125V24.5H13.625V20H17.5625V16.625C17.5625 12.75 19.875 10.5625 23.375 10.5625C25.125 10.5625 26.875 10.875 26.875 10.875V14.6875H24.9375C23 14.6875 22.375 15.875 22.375 17.125V20H26.6875L26 24.5H22.375V35.3125C29.8125 34.1875 35.5 27.75 35.5 20Z" fill="#222222"/>
</g>
<defs>
<clipPath id="clip0_1940_4867">
<rect width="40" height="40" fill="white"/>
</clipPath>
</defs>
</svg>
