<svg width="40" height="40" viewBox="0 0 40 40" fill="none" xmlns="http://www.w3.org/2000/svg">
<g clip-path="url(#clip0_1940_4870)">
<path d="M20 12.8125C16 12.8125 12.8125 16.0625 12.8125 20C12.8125 24 16 27.1875 20 27.1875C23.9375 27.1875 27.1875 24 27.1875 20C27.1875 16.0625 23.9375 12.8125 20 12.8125ZM20 24.6875C17.4375 24.6875 15.3125 22.625 15.3125 20C15.3125 17.4375 17.375 15.375 20 15.375C22.5625 15.375 24.625 17.4375 24.625 20C24.625 22.625 22.5625 24.6875 20 24.6875ZM29.125 12.5625C29.125 13.5 28.375 14.25 27.4375 14.25C26.5 14.25 25.75 13.5 25.75 12.5625C25.75 11.625 26.5 10.875 27.4375 10.875C28.375 10.875 29.125 11.625 29.125 12.5625ZM33.875 14.25C33.75 12 33.25 10 31.625 8.375C30 6.75 28 6.25 25.75 6.125C23.4375 6 16.5 6 14.1875 6.125C11.9375 6.25 10 6.75 8.3125 8.375C6.6875 10 6.1875 12 6.0625 14.25C5.9375 16.5625 5.9375 23.5 6.0625 25.8125C6.1875 28.0625 6.6875 30 8.3125 31.6875C10 33.3125 11.9375 33.8125 14.1875 33.9375C16.5 34.0625 23.4375 34.0625 25.75 33.9375C28 33.8125 30 33.3125 31.625 31.6875C33.25 30 33.75 28.0625 33.875 25.8125C34 23.5 34 16.5625 33.875 14.25ZM30.875 28.25C30.4375 29.5 29.4375 30.4375 28.25 30.9375C26.375 31.6875 22 31.5 20 31.5C17.9375 31.5 13.5625 31.6875 11.75 30.9375C10.5 30.4375 9.5625 29.5 9.0625 28.25C8.3125 26.4375 8.5 22.0625 8.5 20C8.5 18 8.3125 13.625 9.0625 11.75C9.5625 10.5625 10.5 9.625 11.75 9.125C13.5625 8.375 17.9375 8.5625 20 8.5625C22 8.5625 26.375 8.375 28.25 9.125C29.4375 9.5625 30.375 10.5625 30.875 11.75C31.625 13.625 31.4375 18 31.4375 20C31.4375 22.0625 31.625 26.4375 30.875 28.25Z" fill="#222222"/>
</g>
<defs>
<clipPath id="clip0_1940_4870">
<rect width="40" height="40" fill="white"/>
</clipPath>
</defs>
</svg>
