<svg width="180" height="64" viewBox="0 0 180 64" fill="none" xmlns="http://www.w3.org/2000/svg">
<path fill-rule="evenodd" clip-rule="evenodd" d="M32.7139 21.9789L38.3984 29.0827L40.5786 26.3563V48.0108L51.5233 48.0118L51.5262 11.0011L40.5786 11.0002L32.7139 21.9789Z" fill="#1E242E"/>
<path fill-rule="evenodd" clip-rule="evenodd" d="M12 48.0659L22.82 48.0667L22.8219 26.3564L27.3613 32.4087H35.736L37.6374 30.0335L22.8229 11.0558L12.003 11.0549L12 48.0659Z" fill="#1E242E"/>
<path fill-rule="evenodd" clip-rule="evenodd" d="M81.3158 11.0646L70.0473 11.0637L55.6777 48.0734L67.8966 48.0743L73.7143 40.6576L71.4975 37.9405L75.6352 26.0335L79.8477 37.9358H73.0691L81.795 48.0755L95.4705 48.0766L81.3158 11.0646Z" fill="#1E242E"/>
<path fill-rule="evenodd" clip-rule="evenodd" d="M136.262 21.2919L148.745 36.8931L154.711 29.4386L148.179 21.2845L168.93 21.2742L168.931 11.1045L136.263 11.1019L136.262 21.2919Z" fill="#1E242E"/>
<path fill-rule="evenodd" clip-rule="evenodd" d="M136.261 37.8728L136.26 48.0424L168.928 48.0452L168.931 37.8432H147.983L142.115 30.5099L136.261 37.8728Z" fill="#1E242E"/>
<path fill-rule="evenodd" clip-rule="evenodd" d="M110.122 36.7343L110.133 36.7125C107.586 35.3525 105.853 32.6386 105.874 29.513C105.903 25.2919 109.248 21.7318 113.406 21.5099C117.999 21.2649 121.799 24.9676 121.799 29.5702C121.799 33.8331 118.535 37.3088 114.405 37.6057L125.64 43.2553C129.594 39.8799 132.109 35.1888 132.109 29.5227C132.109 24.7635 130.338 20.4237 127.428 17.1433C124.143 13.4407 119.408 11.0878 114.129 11.0039L114.119 11.0037C114.025 11.0023 113.931 11 113.837 11C103.746 11 95.5649 19.293 95.5649 29.5227C95.5649 34.138 97.2306 38.3587 99.9853 41.6017L99.9919 41.6096C101.553 43.4457 103.494 44.9875 105.597 46.1141L124.293 55.5958L130.991 47.2284L110.122 36.7343Z" fill="#1E242E"/>
</svg>
